<svg width="28" height="28" viewBox="0 0 28 28" fill="none" xmlns="http://www.w3.org/2000/svg">
<g clip-path="url(#clip0_2062_3589)">
<path d="M8.55874 10.6896H3.41309V5.54395" stroke="#6949FF" stroke-width="2.57283" stroke-linecap="round" stroke-linejoin="round"/>
<path d="M7.05161 20.3924C8.37094 21.7117 10.0519 22.6102 11.8818 22.9742C13.7118 23.3382 15.6086 23.1514 17.3324 22.4374C19.0561 21.7234 20.5295 20.5142 21.5661 18.9629C22.6027 17.4115 23.1559 15.5876 23.1559 13.7218C23.1559 11.856 22.6027 10.0321 21.5661 8.4807C20.5295 6.92934 19.0561 5.7202 17.3324 5.00619C15.6086 4.29217 13.7118 4.10535 11.8818 4.46936C10.0519 4.83336 8.37094 5.73183 7.05161 7.05116L3.41309 10.6897" stroke="#6949FF" stroke-width="2.57283" stroke-linecap="round" stroke-linejoin="round"/>
</g>
<defs>
<clipPath id="clip0_2062_3589">
<rect width="27.4435" height="27.4435" rx="11.4348" fill="white"/>
</clipPath>
</defs>
</svg>
