<svg width="28" height="28" viewBox="0 0 28 28" fill="none" xmlns="http://www.w3.org/2000/svg">
<path d="M8.28354 5.67876C9.68434 4.25727 11.6088 3.43213 13.7167 3.43213C15.8439 3.43213 17.7769 4.27089 19.1777 5.63512C20.5703 6.99129 21.4406 8.8723 21.4406 10.9554C21.4406 13.1732 20.4391 15.1458 18.6657 16.8515L18.1397 18.8673H9.37371L8.97985 17.2148C7.12355 15.2778 6.09779 13.4117 6.00055 11.29L5.99902 11.2569L6.00007 11.2238C6.06984 9.00228 6.91385 7.06866 8.28354 5.67876ZM9.78252 20.5825L10.1824 22.2601L10.1949 22.2972C10.3669 22.8076 10.6966 23.2313 11.1116 23.5282C11.5419 23.8359 12.0684 24.011 12.6249 24.011H12.6273L15.0003 24.0043L15.0359 24.0012C15.5756 23.9548 16.0769 23.7433 16.4766 23.4085C16.873 23.0764 17.1724 22.6193 17.3006 22.0824L17.692 20.5825H9.78252Z" fill="#6949FF"/>
</svg>
