<svg width="28" height="28" viewBox="0 0 28 28" fill="none" xmlns="http://www.w3.org/2000/svg">
<path opacity="0.4" d="M22.8586 21.6729H16.3473C15.712 21.6729 15.1953 22.1977 15.1953 22.8431C15.1953 23.4896 15.712 24.0133 16.3473 24.0133H22.8586C23.4938 24.0133 24.0105 23.4896 24.0105 22.8431C24.0105 22.1977 23.4938 21.6729 22.8586 21.6729Z" fill="#6949FF"/>
<path d="M11.7884 7.89462L17.9584 12.8803C18.1073 12.9995 18.1327 13.2183 18.0165 13.3707L10.7017 22.902C10.2419 23.4908 9.5643 23.8239 8.83827 23.8362L4.8451 23.8854C4.63213 23.8878 4.44578 23.7403 4.39738 23.5289L3.48984 19.5832C3.33254 18.8579 3.48984 18.1081 3.94966 17.5304L11.3007 7.95362C11.4193 7.79997 11.6383 7.77293 11.7884 7.89462Z" fill="#6949FF"/>
<path opacity="0.4" d="M20.7209 9.90897L19.5314 11.3939C19.4116 11.545 19.1963 11.5696 19.0474 11.4492C17.6014 10.279 13.8986 7.27601 12.8713 6.44383C12.7213 6.32091 12.7007 6.10211 12.8217 5.94969L13.9688 4.52504C15.0095 3.1852 16.8246 3.06228 18.2887 4.23003L19.9707 5.56987C20.6604 6.11072 21.1202 6.82366 21.2775 7.57347C21.459 8.39827 21.2654 9.20832 20.7209 9.90897Z" fill="#6949FF"/>
</svg>
