<svg width="28" height="28" viewBox="0 0 28 28" fill="none" xmlns="http://www.w3.org/2000/svg">
<path d="M23.1551 22.2799H13.9726L17.6956 18.5569L17.6974 18.5553L17.6989 18.5535L23.7615 12.491C24.2433 12.0081 24.5138 11.3539 24.5138 10.6718C24.5138 9.98965 24.2433 9.33539 23.7615 8.85248L18.9102 4.00111C18.4277 3.51862 17.7733 3.24756 17.0909 3.24756C16.4085 3.24756 15.7541 3.51862 15.2716 4.00111L9.20846 10.0643L9.20736 10.0653L9.20637 10.0664L3.14319 16.1296C2.66071 16.6121 2.38965 17.2665 2.38965 17.9489C2.38965 18.6312 2.66071 19.2856 3.14319 19.7681L7.11915 23.744C7.28001 23.9048 7.49815 23.9951 7.7256 23.9952H23.1551C23.3825 23.9952 23.6007 23.9048 23.7615 23.744C23.9223 23.5831 24.0127 23.365 24.0127 23.1375C24.0127 22.9101 23.9223 22.692 23.7615 22.5311C23.6007 22.3703 23.3825 22.2799 23.1551 22.2799ZM16.4845 5.21403C16.5642 5.13437 16.6587 5.07119 16.7627 5.02808C16.8668 4.98496 16.9783 4.96278 17.0909 4.96278C17.2035 4.96278 17.315 4.98496 17.4191 5.02808C17.5231 5.07119 17.6176 5.13437 17.6973 5.21403L22.5486 10.0654C22.7092 10.2264 22.7994 10.4444 22.7994 10.6718C22.7994 10.8992 22.7092 11.1173 22.5486 11.2782L17.0909 16.7359L11.0268 10.6718L16.4845 5.21403Z" fill="#6949FF"/>
</svg>
